<svg width="42" height="42" viewBox="0 0 42 42" fill="none" xmlns="http://www.w3.org/2000/svg">
<path d="M6.5625 0.328125H35.4375C38.8806 0.328125 41.6719 3.11935 41.6719 6.5625V35.4375C41.6719 38.8806 38.8806 41.6719 35.4375 41.6719H6.5625C3.11935 41.6719 0.328125 38.8806 0.328125 35.4375V6.5625C0.328125 3.11935 3.11935 0.328125 6.5625 0.328125Z" fill="url(#paint0_linear_29_1356)"/>
<path d="M6.5625 0.328125H35.4375C38.8806 0.328125 41.6719 3.11935 41.6719 6.5625V35.4375C41.6719 38.8806 38.8806 41.6719 35.4375 41.6719H6.5625C3.11935 41.6719 0.328125 38.8806 0.328125 35.4375V6.5625C0.328125 3.11935 3.11935 0.328125 6.5625 0.328125Z" fill="#E52B50"/>
<path d="M6.5625 0.328125H35.4375C38.8806 0.328125 41.6719 3.11935 41.6719 6.5625V35.4375C41.6719 38.8806 38.8806 41.6719 35.4375 41.6719H6.5625C3.11935 41.6719 0.328125 38.8806 0.328125 35.4375V6.5625C0.328125 3.11935 3.11935 0.328125 6.5625 0.328125Z" stroke="white" stroke-width="0.65625"/>
<path d="M31.5 21C31.5 15.225 26.775 10.5 21 10.5C15.225 10.5 10.5 15.225 10.5 21C10.5 26.25 14.3062 30.5812 19.2937 31.3687V24.0187H16.6687V21H19.2937V18.6375C19.2937 16.0125 20.8688 14.5688 23.2313 14.5688C24.4125 14.5688 25.5938 14.8313 25.5938 14.8313V17.4563H24.2812C22.9688 17.4563 22.575 18.2438 22.575 19.0312V21H25.4625L24.9375 24.0187H22.4438V31.5C27.6938 30.7125 31.5 26.25 31.5 21Z" fill="white"/>
<defs>
<linearGradient id="paint0_linear_29_1356" x1="21" y1="0" x2="21" y2="42" gradientUnits="userSpaceOnUse">
<stop stop-color="#C42049"/>
<stop offset="1" stop-color="#54061D"/>
</linearGradient>
</defs>
</svg>
