<svg width="42" height="42" viewBox="0 0 42 42" fill="none" xmlns="http://www.w3.org/2000/svg">
<path d="M6.5625 0.328125H35.4375C38.8806 0.328125 41.6719 3.11935 41.6719 6.5625V35.4375C41.6719 38.8806 38.8806 41.6719 35.4375 41.6719H6.5625C3.11935 41.6719 0.328125 38.8806 0.328125 35.4375V6.5625C0.328125 3.11935 3.11935 0.328125 6.5625 0.328125Z" fill="url(#paint0_linear_29_1357)"/>
<path d="M6.5625 0.328125H35.4375C38.8806 0.328125 41.6719 3.11935 41.6719 6.5625V35.4375C41.6719 38.8806 38.8806 41.6719 35.4375 41.6719H6.5625C3.11935 41.6719 0.328125 38.8806 0.328125 35.4375V6.5625C0.328125 3.11935 3.11935 0.328125 6.5625 0.328125Z" fill="#E52B50"/>
<path d="M6.5625 0.328125H35.4375C38.8806 0.328125 41.6719 3.11935 41.6719 6.5625V35.4375C41.6719 38.8806 38.8806 41.6719 35.4375 41.6719H6.5625C3.11935 41.6719 0.328125 38.8806 0.328125 35.4375V6.5625C0.328125 3.11935 3.11935 0.328125 6.5625 0.328125Z" stroke="white" stroke-width="0.65625"/>
<path fill-rule="evenodd" clip-rule="evenodd" d="M28.35 13.5188C26.3813 11.55 23.7562 10.5 21 10.5C15.225 10.5 10.5 15.225 10.5 21C10.5 22.8375 11.025 24.675 11.9438 26.25L10.5 31.5L16.0125 30.0562C17.5875 30.8438 19.2937 31.3687 21 31.3687C26.775 31.3687 31.5 26.6437 31.5 20.8687C31.5 18.1125 30.3188 15.4875 28.35 13.5188ZM21 29.6625C19.425 29.6625 17.85 29.2688 16.5375 28.4813L16.275 28.35L12.9937 29.2687L13.9125 26.1187L13.65 25.725C12.7312 24.2812 12.3375 22.7063 12.3375 21.1313C12.3375 16.4063 16.275 12.4688 21 12.4688C23.3625 12.4688 25.4625 13.3875 27.1688 14.9625C28.875 16.6687 29.6625 18.7688 29.6625 21.1313C29.6625 25.725 25.8562 29.6625 21 29.6625ZM25.725 23.1C25.4625 22.9688 24.15 22.3125 23.8875 22.3125C23.625 22.1812 23.4937 22.1813 23.3625 22.4438C23.2312 22.7063 22.7063 23.2312 22.575 23.4937C22.4438 23.625 22.3125 23.625 22.05 23.625C21.7875 23.4937 21 23.2312 19.95 22.3125C19.1625 21.6562 18.6375 20.7375 18.5063 20.475C18.375 20.2125 18.5063 20.0813 18.6375 19.95C18.7688 19.8187 18.9 19.6875 19.0312 19.5562C19.1625 19.425 19.1625 19.2938 19.2938 19.1625C19.425 19.0313 19.2938 18.9 19.2938 18.7688C19.2938 18.6375 18.7688 17.325 18.5063 16.8C18.375 16.4062 18.1125 16.4062 17.9813 16.4062C17.85 16.4062 17.7187 16.4062 17.4562 16.4062C17.325 16.4062 17.0625 16.4062 16.8 16.6687C16.5375 16.9312 15.8813 17.5875 15.8813 18.9C15.8813 20.2125 16.8 21.3938 16.9312 21.6562C17.0625 21.7875 18.7687 24.5437 21.3937 25.5938C23.625 26.5125 24.0188 26.25 24.5438 26.25C25.0688 26.25 26.1187 25.5938 26.25 25.0688C26.5125 24.4125 26.5125 23.8875 26.3813 23.8875C26.25 23.2313 25.9875 23.2313 25.725 23.1Z" fill="white"/>
<defs>
<linearGradient id="paint0_linear_29_1357" x1="21" y1="0" x2="21" y2="42" gradientUnits="userSpaceOnUse">
<stop stop-color="#C42049"/>
<stop offset="1" stop-color="#54061D"/>
</linearGradient>
</defs>
</svg>
